# xmcd CD database file
#
# Track frame offsets:
#	150
#	17582
#	28827
#	47145
#	64477
#	77022
#	92402
#	110740
#	124937
#	140067
#	159535
#	180762
#	198575
#	218030
#	248597
#	259450
#	289727
#
# Disc length: 4308 seconds
#
# Revision: 3
# Processed by: cddbd v1.5.1PL2 Copyright (c) Steve Scherf et al.
# Submitted via: CDex 1.51
#
DISCID=f710d211
DTITLE=Dwight Yoakam - Dwight Live
DYEAR=1995
DGENRE=Country
TTITLE0=Little Sister
TTITLE1=It Only Hurt's When I Cry
TTITLE2=The Heart That You Own
TTITLE3=This Time
TTITLE4=Streets Of Bakersfield
TTITLE5=Little Ways
TTITLE6=Please, Please Baby
TTITLE7=Nothings Changed Here
TTITLE8=Lonesome Roads
TTITLE9=A Thousand Miles From Nowhere
TTITLE10=Wild Ride
TTITLE11=Two Doors Down
TTITLE12=Fast As You
TTITLE13=Long White Cadillac
TTITLE14=Miner's Prayer
TTITLE15=Rocky Road Blues
TTITLE16=Suspicious Minds
EXTD=YEAR: 1995
EXTT0=
EXTT1=
EXTT2=
EXTT3=
EXTT4=
EXTT5=
EXTT6=
EXTT7=
EXTT8=
EXTT9=
EXTT10=
EXTT11=
EXTT12=
EXTT13=
EXTT14=
EXTT15=
EXTT16=
PLAYORDER=
